<?xml version="1.0" encoding="utf-8"?>
<!-- Generator: Adobe Illustrator 26.0.1, SVG Export Plug-In . SVG Version: 6.00 Build 0)  -->
<svg version="1.1" id="圖層_1" xmlns="http://www.w3.org/2000/svg" xmlns:xlink="http://www.w3.org/1999/xlink" x="0px" y="0px"
	 viewBox="0 0 415 720" style="enable-background:new 0 0 415 720;" xml:space="preserve">
<style type="text/css">
	.st0{fill:#666666;stroke:#000000;stroke-width:3;stroke-miterlimit:10;}
	.st1{fill:#403F3E;}
	.st2{fill:#FFFFFF;}
	.st3{fill:#F0919B;}
</style>
<g>
	<path class="st0" d="M395.5,713.5h-376c-6.6,0-12-5.4-12-12v-676c0-6.6,5.4-12,12-12h376c6.6,0,12,5.4,12,12v676
		C407.5,708.1,402.1,713.5,395.5,713.5z"/>
	<g>
		<g>
			<path class="st1" d="M338.95,486.52H76.05c-10.8,0-19.5-8.8-19.5-19.5v-55.9c0-10.8,8.8-19.5,19.5-19.5h262.9
				c10.8,0,19.5,8.8,19.5,19.5v55.9C358.55,477.82,349.75,486.52,338.95,486.52z"/>
			<path class="st1" d="M160.05,570.52v-262.9c0-10.8,8.8-19.5,19.5-19.5h55.9c10.8,0,19.5,8.8,19.5,19.5v262.9
				c0,10.8-8.8,19.5-19.5,19.5h-55.9C168.75,590.02,160.05,581.32,160.05,570.52z"/>
		</g>
		<path class="st2" d="M203.55,309.12l-23.7,51.3c-1.3,2.9,0.8,6.2,4,6.2h47.4c3.2,0,5.3-3.3,4-6.2l-23.8-51.3
			C209.95,305.72,205.15,305.72,203.55,309.12z"/>
		<path class="st2" d="M211.45,569.02l23.7-51.3c1.3-2.9-0.8-6.2-4-6.2h-47.4c-3.2,0-5.3,3.3-4,6.2l23.7,51.3
			C205.15,572.42,209.95,572.42,211.45,569.02z"/>
		<path class="st2" d="M76.65,443.02l51.3,23.7c2.9,1.3,6.2-0.8,6.2-4v-47.4c0-3.2-3.3-5.3-6.2-4l-51.3,23.8
			C73.25,436.62,73.25,441.42,76.65,443.02z"/>
		<path class="st2" d="M335.45,437.52l-51.3-23.7c-2.9-1.3-6.2,0.8-6.2,4v47.4c0,3.2,3.3,5.3,6.2,4l51.3-23.7
			C338.85,443.92,338.85,439.12,335.45,437.52z"/>
		<circle class="st2" cx="207.55" cy="439.02" r="28.7"/>
	</g>
	<circle class="st3" cx="278.05" cy="137.07" r="44.1"/>
	<circle class="st3" cx="134.55" cy="137.57" r="44.1"/>
</g>
</svg>
